<svg xmlns="http://www.w3.org/2000/svg" xmlns:xlink="http://www.w3.org/1999/xlink" version="1.1" width="16" height="16" viewBox="0 0 16 16" xml:space="preserve">
    <desc>
        Created with Fabric.js 5.4.0
    </desc>
    <defs/>
    <rect x="0" y="0" width="100%" height="100%" fill="transparent"/>
    <g transform="matrix(1 0 0 1 8.5 8.29)">
        <g style="">
            <g transform="matrix(1 0 0 1 0 0)">
                <rect x="-7.052235709749124" y="-6.215" rx="0" ry="0" width="14.104471419498248" height="12.43" stroke="rgb(255,255,255)" stroke-opacity="0" stroke-width="1" stroke-dasharray="none" stroke-linecap="butt" stroke-dashoffset="0" stroke-linejoin="miter" stroke-miterlimit="4" fill="rgb(255,255,255)" fill-opacity="0" fill-rule="nonzero" opacity="1"/>
            </g>
            <g transform="matrix(1 0 0 1 -3.51 -0.59)">
                <path paint-order="stroke" transform=" translate(-4.99, -7.7)" d="M 3.79 11.23 L 2.5 11.28 Q 2.46 11.24 2.46 11.12 L 2.46 11.12 Q 2.46 10.97 2.5 10.97 L 2.5 10.97 Q 2.6 10.97 2.76 10.94 Q 2.92 10.92 3.06 10.86 Q 3.2 10.81 3.22 10.76 L 3.22 10.76 Q 3.3 10.49 3.3 9.79 L 3.3 9.79 L 3.3 5.65 Q 3.3 5.34 3.28 5.1 Q 3.27 4.87 3.22 4.73 L 3.22 4.73 Q 3.2 4.66 3.06 4.61 Q 2.91 4.56 2.75 4.52 Q 2.58 4.49 2.48 4.49 L 2.48 4.49 Q 2.44 4.49 2.44 4.36 L 2.44 4.36 Q 2.44 4.22 2.48 4.18 L 2.48 4.18 Q 2.76 4.19 3.08 4.2 Q 3.4 4.2 3.76 4.2 L 3.76 4.2 Q 4.01 4.2 4.43 4.19 Q 4.85 4.18 5.44 4.16 L 5.44 4.16 Q 6.04 4.14 6.48 4.13 Q 6.93 4.12 7.23 4.12 L 7.23 4.12 Q 7.25 4.27 7.3 4.48 Q 7.34 4.69 7.4 4.93 L 7.4 4.93 Q 7.46 5.19 7.49 5.35 Q 7.53 5.51 7.54 5.58 L 7.54 5.58 Q 7.49 5.63 7.35 5.63 L 7.35 5.63 Q 7.21 5.63 7.2 5.56 L 7.2 5.56 Q 7.04 4.97 6.75 4.8 Q 6.46 4.63 5.95 4.63 L 5.95 4.63 L 5.23 4.63 Q 4.3 4.63 4.29 4.77 L 4.29 4.77 Q 4.27 4.9 4.25 5.13 Q 4.23 5.35 4.23 5.67 L 4.23 5.67 L 4.23 7.43 Q 4.23 7.49 4.69 7.49 L 4.69 7.49 L 5.25 7.49 Q 5.74 7.49 5.95 7.45 Q 6.17 7.41 6.25 7.27 Q 6.34 7.12 6.41 6.8 L 6.41 6.8 L 6.44 6.71 Q 6.45 6.63 6.6 6.63 L 6.6 6.63 Q 6.73 6.63 6.78 6.68 L 6.78 6.68 L 6.78 8.77 Q 6.74 8.81 6.61 8.81 L 6.61 8.81 Q 6.47 8.81 6.44 8.73 L 6.44 8.73 Q 6.39 8.57 6.36 8.47 Q 6.33 8.36 6.31 8.28 L 6.31 8.28 Q 6.25 8.13 6.23 8.11 Q 6.2 8.09 6.14 8.05 L 6.14 8.05 Q 5.99 7.96 5 7.96 L 5 7.96 Q 4.23 7.96 4.23 8.06 L 4.23 8.06 L 4.23 9.76 Q 4.23 10.38 4.33 10.76 L 4.33 10.76 Q 4.35 10.8 4.49 10.85 Q 4.63 10.91 4.79 10.94 Q 4.95 10.97 5.02 10.97 L 5.02 10.97 Q 5.06 10.97 5.06 11.13 L 5.06 11.13 Q 5.06 11.2 5.04 11.28 L 5.04 11.28 Q 4.5 11.26 4.19 11.24 Q 3.88 11.23 3.79 11.23 L 3.79 11.23 Z" stroke-linecap="butt" stroke="rgb(255,255,255)" stroke-width="0" stroke-dasharray="none" stroke-dashoffset="0" stroke-linejoin="miter" stroke-miterlimit="4" fill="rgb(151,176,2)" fill-rule="nonzero" opacity="1"/>
            </g>
            <g transform="matrix(1 0 0 1 1.93 -0.63)">
                <path paint-order="stroke" transform=" translate(-10.43, -7.66)" d="M 10.44 11.23 L 9.15 11.28 Q 9.11 11.24 9.11 11.12 L 9.11 11.12 Q 9.11 10.97 9.15 10.97 L 9.15 10.97 Q 9.25 10.97 9.41 10.94 Q 9.57 10.92 9.71 10.86 Q 9.85 10.81 9.87 10.76 L 9.87 10.76 Q 9.91 10.6 9.93 10.37 Q 9.94 10.13 9.94 9.8 L 9.94 9.8 L 9.94 5.91 Q 9.94 4.98 9.85 4.8 L 9.85 4.8 Q 9.77 4.64 8.69 4.64 L 8.69 4.64 Q 8.28 4.64 8.05 4.71 Q 7.83 4.78 7.71 4.99 Q 7.59 5.19 7.48 5.6 L 7.48 5.6 Q 7.46 5.65 7.38 5.65 L 7.38 5.65 Q 7.19 5.65 7.12 5.58 L 7.12 5.58 L 7.32 4.04 Q 7.56 4.1 7.74 4.13 Q 7.92 4.16 8.06 4.16 L 8.06 4.16 Q 8.84 4.16 9.43 4.18 Q 10.02 4.2 10.42 4.2 L 10.42 4.2 Q 11.24 4.2 11.84 4.18 Q 12.44 4.16 12.78 4.16 L 12.78 4.16 Q 12.92 4.16 13.1 4.13 Q 13.29 4.1 13.52 4.04 L 13.52 4.04 L 13.73 5.58 Q 13.65 5.65 13.47 5.65 L 13.47 5.65 Q 13.38 5.65 13.36 5.6 L 13.36 5.6 Q 13.26 5.19 13.14 4.99 Q 13.02 4.78 12.79 4.71 Q 12.57 4.64 12.16 4.64 L 12.16 4.64 Q 11.03 4.64 10.98 4.8 L 10.98 4.8 Q 10.88 5.14 10.88 5.88 L 10.88 5.88 L 10.88 9.76 Q 10.88 10.38 10.98 10.76 L 10.98 10.76 Q 11 10.8 11.14 10.85 Q 11.28 10.91 11.44 10.94 Q 11.6 10.97 11.66 10.97 L 11.66 10.97 Q 11.71 10.97 11.71 11.13 L 11.71 11.13 Q 11.71 11.2 11.68 11.28 L 11.68 11.28 Q 11.15 11.26 10.84 11.24 Q 10.52 11.23 10.44 11.23 L 10.44 11.23 Z" stroke-linecap="butt" stroke="rgb(255,255,255)" stroke-width="0" stroke-dasharray="none" stroke-dashoffset="0" stroke-linejoin="miter" stroke-miterlimit="4" fill="rgb(151,176,2)" fill-rule="nonzero" opacity="1"/>
            </g>
        </g>
    </g>
</svg>
